<svg width="26" height="23" viewBox="0 0 26 23" fill="none" xmlns="http://www.w3.org/2000/svg">
<path fill-rule="evenodd" clip-rule="evenodd" d="M0.961367 0.103047C0.757133 0.216385 0.585938 0.516381 0.585938 0.760903C0.585938 1.01321 0.757036 1.30613 0.971671 1.42125C1.15152 1.51766 1.25451 1.52361 2.75062 1.52361H4.33869L6.08837 7.96137L7.838 14.3991L7.69782 14.691C7.45483 15.197 7.35064 15.5943 7.35064 16.015C7.35064 17.072 8.00388 17.9577 8.9805 18.2251C9.18831 18.282 9.53351 18.3042 10.2588 18.3074C11.1484 18.3112 11.2269 18.3182 11.0085 18.374C10.6078 18.4763 10.3019 18.6605 9.99117 18.9864C9.13249 19.8872 9.13249 21.2966 9.99117 22.1951C10.8543 23.0982 12.1899 23.0988 13.0443 22.1965C13.7063 21.4976 13.8711 20.4815 13.4684 19.5825C13.2163 19.0197 12.5579 18.475 11.9864 18.3562C11.8722 18.3324 13.2563 18.3136 15.1707 18.313C17.941 18.312 18.5125 18.323 18.313 18.374C17.9123 18.4763 17.6064 18.6605 17.2956 18.9864C16.4369 19.8872 16.4369 21.2966 17.2956 22.1951C18.1587 23.0982 19.4943 23.0988 20.3488 22.1965C21.2077 21.2896 21.2077 19.8916 20.3488 18.9864C20.0397 18.6607 19.7341 18.4764 19.3328 18.374C19.1218 18.3201 19.2766 18.3111 20.4816 18.3074C21.7773 18.3034 21.8876 18.2959 22.0652 18.2007C22.2798 18.0856 22.4509 17.7927 22.4509 17.5404C22.4509 17.2881 22.2798 16.9951 22.0652 16.88C21.8768 16.779 21.7927 16.7777 15.6201 16.7776C9.76227 16.7775 9.35511 16.7719 9.19746 16.6886C8.80601 16.4819 8.70651 16.0345 8.94049 15.533L9.07154 15.2522H15.4729C21.8164 15.2522 21.8761 15.2513 22.0673 15.1487C22.2021 15.0765 22.2891 14.9806 22.3555 14.8309C22.4768 14.5577 25.3534 3.95846 25.3534 3.78482C25.3534 3.55722 25.1735 3.26175 24.9676 3.15137C24.7783 3.04982 24.7019 3.04901 15.518 3.04901H6.25927L5.93377 1.8414C5.54692 0.406247 5.48718 0.258028 5.23534 0.10925C5.05051 8.22655e-05 5.01457 -0.00174809 3.0948 0.000438322C1.24643 0.00257389 1.13261 0.00806533 0.961367 0.103047Z" fill="#91C2E2"/>
</svg>
