<svg width="25" height="25" viewBox="0 0 25 25" fill="none" xmlns="http://www.w3.org/2000/svg">
<path fill-rule="evenodd" clip-rule="evenodd" d="M9.46489 0.0527696C7.717 0.231714 5.97607 0.91788 4.47485 2.0196C3.91856 2.42787 2.89658 3.43522 2.48153 3.98447C1.19243 5.69026 0.50327 7.62478 0.429153 9.74583C0.385026 11.0096 0.540157 12.0979 0.932707 13.2775C1.42251 14.7494 2.26397 16.1054 3.37807 17.2183C5.01138 18.8496 7.07544 19.8517 9.38123 20.1327C10.002 20.2084 11.5886 20.1674 12.1801 20.0604C13.5554 19.8115 14.7792 19.3448 15.8861 18.6469L16.3144 18.3769L19.3157 21.4907C20.9664 23.2033 22.3856 24.6622 22.4694 24.7327C22.9948 25.1742 23.9087 25.0525 24.3097 24.4877C24.5112 24.2039 24.5736 24.0181 24.578 23.6889C24.5852 23.1584 24.5505 23.1165 21.3791 19.8288C19.7926 18.1841 18.4442 16.7786 18.3826 16.7056L18.2707 16.5727L18.5327 16.2378C20.3083 13.9676 20.9964 10.9814 20.417 8.05998C20.1275 6.60023 19.3695 4.99539 18.403 3.79556C16.2382 1.10836 12.882 -0.297057 9.46489 0.0527696ZM11.4718 2.7063C14.6451 3.12835 17.1584 5.44867 17.8318 8.578C17.9656 9.19981 18.0156 10.4435 17.9305 11.0366C17.6868 12.7367 16.9702 14.1889 15.7963 15.3614C14.6645 16.4919 13.2606 17.2089 11.6681 17.4697C11.1339 17.5572 9.96032 17.5576 9.38739 17.4705C7.32299 17.1565 5.45309 15.9596 4.30426 14.217C3.89371 13.5942 3.67292 13.1433 3.44583 12.4638C3.19877 11.7246 3.10049 11.1709 3.06898 10.3404C2.91086 6.17617 6.2739 2.67693 10.4678 2.64194C10.7369 2.6397 11.1886 2.66862 11.4718 2.7063Z" fill="#005389"/>
</svg>
